<svg width="48" height="49" viewBox="0 0 48 49" fill="none" xmlns="http://www.w3.org/2000/svg">
<path d="M3.28983 31.3798C5.7167 31.6982 8.27061 29.4403 10.2521 28.3147C12.1536 27.2347 13.7975 25.7558 14.7662 23.7596C16.6844 19.8083 20.7011 14.579 25.4111 14.295C28.0525 14.1356 31.7306 13.8987 32.881 16.7999C27.6831 17.7534 28.0652 25.1727 32.6552 26.7958C34.3189 27.3845 36.9664 27.3996 38.7566 27.2104C41.2427 26.9472 43.5466 24.8807 46.0352 25.1985C47.0085 26.9006 45.1409 30.5417 44.7608 32.3571C44.2804 34.6529 42.7661 36.9518 41.478 38.6878C40.0705 40.5852 37.9508 42.7762 35.9628 44.1625C33.6528 45.7735 30.3048 46.5003 27.5626 47.1011C22.3323 48.2475 17.431 46.5646 12.9381 44.2825C11.1692 43.3841 8.97919 42.2828 7.62328 40.7042C6.82967 39.78 6.29469 38.5703 5.824 37.4877C5.24803 36.1632 4.24235 34.987 3.66942 33.6574C3.41332 33.0617 3.22049 32.1572 3.28983 31.7594" fill="url(#paint0_linear_2378_205)"/>
<path d="M23.9144 48.5881C10.7278 48.5881 0 37.6902 0 24.294C0 10.8984 10.7278 0 23.9144 0C37.101 0 47.8289 10.8984 47.8289 24.294C47.8289 37.6902 37.101 48.5881 23.9144 48.5881ZM23.9144 2.53063C12.1232 2.53063 2.53063 12.2938 2.53063 24.294C2.53063 36.2943 12.1232 46.0574 23.9144 46.0574C35.7056 46.0574 45.2982 36.2943 45.2982 24.294C45.2982 12.2938 35.7056 2.53063 23.9144 2.53063Z" fill="url(#paint1_linear_2378_205)"/>
<path d="M4.26866 32.385C3.34802 32.385 2.3717 32.2124 1.31238 31.7994L2.231 29.4419C4.80414 30.4435 6.67529 29.4302 9.26564 28.0273C9.60069 27.8461 9.94182 27.6608 10.2926 27.4766C12.6805 26.2194 14.8037 21.973 15.824 19.9323C18.1735 15.2339 23.5146 11.8819 28.2266 12.1319C31.271 12.2938 33.6153 13.9904 34.659 16.7857L35.3964 18.7611L33.3066 18.4828C32.4609 18.3689 31.7488 18.5607 31.189 19.0491C30.4551 19.6899 30.0143 20.8099 30.0102 22.0459C30.0016 24.6787 32.1056 25.6449 33.8714 25.9926C36.0164 26.4153 38.7935 26.187 41.3014 25.3833C42.0504 25.1429 42.7216 24.8265 43.3699 24.5198C44.4981 23.9869 45.6652 23.4357 47.2013 23.2874L47.4442 25.8064C46.3469 25.9122 45.4683 26.3272 44.4505 26.808C43.7616 27.1335 42.9807 27.5024 42.0732 27.7929C39.1767 28.7212 35.9278 28.9758 33.383 28.4757C29.6757 27.7469 27.4685 25.3402 27.4796 22.0373C27.4862 20.0548 28.2317 18.2707 29.5253 17.142C30.0755 16.6622 30.7001 16.3201 31.3803 16.1227C30.4202 15.0396 29.1341 14.7141 28.0915 14.6585C24.8487 14.4894 20.202 16.8333 18.0869 21.0635C16.2654 24.7071 14.2029 28.2768 11.4713 29.7152C11.1297 29.8949 10.7972 30.0756 10.4707 30.2522C8.46242 31.3404 6.53307 32.385 4.26866 32.385Z" fill="url(#paint2_linear_2378_205)"/>
<defs>
<linearGradient id="paint0_linear_2378_205" x1="24.7942" y1="14.2112" x2="24.7942" y2="47.4707" gradientUnits="userSpaceOnUse">
<stop stop-color="#5964FF"/>
<stop offset="1" stop-color="#12EBD1"/>
</linearGradient>
<linearGradient id="paint1_linear_2378_205" x1="23.9144" y1="0" x2="23.9144" y2="48.5881" gradientUnits="userSpaceOnUse">
<stop stop-color="#5964FF"/>
<stop offset="1" stop-color="#12EBD1"/>
</linearGradient>
<linearGradient id="paint2_linear_2378_205" x1="24.3783" y1="12.1188" x2="24.3783" y2="32.385" gradientUnits="userSpaceOnUse">
<stop stop-color="#5964FF"/>
<stop offset="1" stop-color="#12EBD1"/>
</linearGradient>
</defs>
</svg>
