{
  "accessors": [
    {
      "bufferView": 2,
      "componentType": 5126,
      "count": 5430,
      "max": [
        2.066018581390381,
        1.4746954441070557,
        4.3743414878845215
      ],
      "min": [
        -3.0417513847351074,
        -1.4746944904327393,
        -5.027781009674072
      ],
      "type": "VEC3"
    },
    {
      "bufferView": 2,
      "byteOffset": 65160,
      "componentType": 5126,
      "count": 5430,
      "max": [
        0.9999936819076538,
        0.9999731779098511,
        1.0
      ],
      "min": [
        -0.9995664358139038,
        -0.9999731779098511,
        -1.0
      ],
      "type": "VEC3"
    },
    {
      "bufferView": 3,
      "componentType": 5126,
      "count": 5430,
      "max": [
        0.9980980753898621,
        0.9999861121177673,
        0.9974959492683411,
        1.0
      ],
      "min": [
        -0.9950725436210632,
        -0.9999858140945435,
        -0.9414816498756409,
        -1.0
      ],
      "type": "VEC4"
    },
    {
      "bufferView": 1,
      "componentType": 5126,
      "count": 5430,
      "max": [
        0.9856488108634949,
        0.9843330383300781
      ],
      "min": [
        0.017343491315841675,
        0.019155800342559814
      ],
      "type": "VEC2"
    },
    {
      "bufferView": 0,
      "componentType": 5125,
      "count": 29604,
      "type": "SCALAR"
    }
  ],
  "asset": {
    "extras": {
      "author": "Chicy3 (https://sketchfab.com/Chicy3)",
      "license": "CC-BY-4.0 (http://creativecommons.org/licenses/by/4.0/)",
      "source": "https://sketchfab.com/3d-models/orca-c6f4af0bc9b44f8d801878b4c2e40d32",
      "title": "Orca"
    },
    "generator": "Sketchfab-12.68.0",
    "version": "2.0"
  },
  "bufferViews": [
    {
      "buffer": 0,
      "byteLength": 118416,
      "name": "floatBufferViews",
      "target": 34963
    },
    {
      "buffer": 0,
      "byteLength": 43440,
      "byteOffset": 118416,
      "byteStride": 8,
      "name": "floatBufferViews",
      "target": 34962
    },
    {
      "buffer": 0,
      "byteLength": 130320,
      "byteOffset": 161856,
      "byteStride": 12,
      "name": "floatBufferViews",
      "target": 34962
    },
    {
      "buffer": 0,
      "byteLength": 86880,
      "byteOffset": 292176,
      "byteStride": 16,
      "name": "floatBufferViews",
      "target": 34962
    }
  ],
  "buffers": [
    {
      "byteLength": 379056,
      "uri": "scene.bin"
    }
  ],
  "images": [
    {
      "uri": "textures/Scene_-_Root_baseColor.png"
    },
    {
      "uri": "textures/Scene_-_Root_metallicRoughness.png"
    },
    {
      "uri": "textures/Scene_-_Root_normal.png"
    }
  ],
  "materials": [
    {
      "doubleSided": true,
      "name": "Scene_-_Root",
      "normalTexture": {
        "index": 2
      },
      "pbrMetallicRoughness": {
        "baseColorTexture": {
          "index": 0
        },
        "metallicFactor": 0.0,
        "metallicRoughnessTexture": {
          "index": 1
        }
      }
    }
  ],
  "meshes": [
    {
      "name": "LowMirrored.001__0",
      "primitives": [
        {
          "attributes": {
            "NORMAL": 1,
            "POSITION": 0,
            "TANGENT": 2,
            "TEXCOORD_0": 3
          },
          "indices": 4,
          "material": 0,
          "mode": 4
        }
      ]
    }
  ],
  "nodes": [
    {
      "children": [
        1
      ],
      "matrix": [
        1.0,
        0.0,
        0.0,
        0.0,
        0.0,
        2.220446049250313e-16,
        -1.0,
        0.0,
        0.0,
        1.0,
        2.220446049250313e-16,
        0.0,
        0.0,
        0.0,
        0.0,
        1.0
      ],
      "name": "Sketchfab_model"
    },
    {
      "children": [
        2
      ],
      "matrix": [
        1.0,
        0.0,
        0.0,
        0.0,
        0.0,
        0.0,
        1.0,
        0.0,
        0.0,
        -1.0,
        0.0,
        0.0,
        0.0,
        0.0,
        0.0,
        1.0
      ],
      "name": "Orca_LowEyesFix.fbx"
    },
    {
      "children": [
        3
      ],
      "name": "RootNode"
    },
    {
      "children": [
        4
      ],
      "matrix": [
        -4.801344211294571e-06,
        -17.018199920653622,
        2.834099608437662e-15,
        0.0,
        -2.7726166940437096e-06,
        7.803220921898362e-13,
        -17.01819992065407,
        0.0,
        17.018199920653394,
        -4.80134421507337e-06,
        -2.7726166930990095e-06,
        0.0,
        0.0,
        0.0,
        0.0,
        1.0
      ],
      "name": "LowMirrored.001"
    },
    {
      "mesh": 0,
      "name": "LowMirrored.001__0"
    }
  ],
  "samplers": [
    {
      "magFilter": 9729,
      "minFilter": 9987,
      "wrapS": 10497,
      "wrapT": 10497
    }
  ],
  "scene": 0,
  "scenes": [
    {
      "name": "Sketchfab_Scene",
      "nodes": [
        0
      ]
    }
  ],
  "textures": [
    {
      "sampler": 0,
      "source": 0
    },
    {
      "sampler": 0,
      "source": 1
    },
    {
      "sampler": 0,
      "source": 2
    }
  ]
}
